<svg width="60" height="60" viewBox="0 0 60 60" fill="none" xmlns="http://www.w3.org/2000/svg">
<g clip-path="url(#clip0_114_35590)">
<path d="M30.1912 7.5957H30.525C33.6075 7.60695 49.2262 7.71945 53.4375 8.85195C54.7106 9.19759 55.8707 9.87129 56.8018 10.8057C57.733 11.7402 58.4026 12.9026 58.7438 14.177C59.1225 15.602 59.3888 17.4882 59.5688 19.4345L59.6063 19.8245L59.6888 20.7995L59.7188 21.1895C59.9625 24.617 59.9925 27.827 59.9963 28.5282V28.8095C59.9925 29.537 59.9587 32.9645 59.6888 36.5345L59.6588 36.9282L59.625 37.3182C59.4375 39.4632 59.16 41.5932 58.7438 43.1607C58.4036 44.4355 57.7344 45.5985 56.8031 46.5331C55.8718 47.4678 54.7111 48.1411 53.4375 48.4857C49.0875 49.6557 32.5537 49.7382 30.2625 49.742H29.73C28.5712 49.742 23.7787 49.7195 18.7537 49.547L18.1162 49.5245L17.79 49.5095L17.1488 49.4832L16.5075 49.457C12.345 49.2732 8.38125 48.977 6.555 48.482C5.28184 48.1377 4.12149 47.4649 3.19022 46.531C2.25894 45.5971 1.58943 44.4348 1.24875 43.1607C0.8325 41.597 0.555 39.4632 0.3675 37.3182L0.3375 36.9245L0.3075 36.5345C0.122428 33.9935 0.0198745 31.4471 0 28.8995L0 28.4382C0.0075 27.632 0.0375 24.8457 0.24 21.7707L0.26625 21.3845L0.2775 21.1895L0.3075 20.7995L0.39 19.8245L0.4275 19.4345C0.6075 17.4882 0.87375 15.5982 1.2525 14.177C1.5926 12.9021 2.26186 11.7391 3.19317 10.8045C4.12449 9.86991 5.28514 9.19655 6.55875 8.85195C8.385 8.36445 12.3487 8.06445 16.5112 7.87695L17.1488 7.8507L17.7937 7.8282L18.1162 7.81695L18.7575 7.7907C22.3264 7.67586 25.8968 7.6121 29.4675 7.59945H30.1912V7.5957ZM24 19.6332V37.7007L39.5887 28.6707L24 19.6332Z" fill="#FF0000"/>
</g>
<defs>
<clipPath id="clip0_114_35590">
<rect width="60" height="60" fill="white"/>
</clipPath>
</defs>
</svg>
